<?xml version="1.0" encoding="utf-8"?>
<!-- Generator: Adobe Illustrator 25.2.0, SVG Export Plug-In . SVG Version: 6.00 Build 0)  -->
<svg version="1.1" id="レイヤー_1" xmlns="http://www.w3.org/2000/svg" xmlns:xlink="http://www.w3.org/1999/xlink" x="0px"
	 y="0px" viewBox="0 0 595.3 841.9" style="enable-background:new 0 0 595.3 841.9;" xml:space="preserve">
<style type="text/css">
	.st0{fill:#EA5514;}
	.st1{fill:#EA5514;stroke:#000000;stroke-width:3;stroke-miterlimit:10;}
	.st2{fill:none;stroke:#000000;stroke-width:3;stroke-miterlimit:10;}
</style>
<path class="st0" d="M299.5,679.9L299.5,679.9C138.5,679.9,8,548.7,8,386.9l0,0c0-161.8,130.5-293,291.5-293l0,0
	c161,0,291.5,131.2,291.5,293l0,0C591,548.7,460.5,679.9,299.5,679.9z"/>
<path class="st0" d="M280,306"/>
<polyline class="st1" points="36,512.4 291.8,355.5 591,385.5 "/>
<polyline class="st1" points="36,261.4 186,413.7 186,656.8 "/>
<line class="st2" x1="213.9" y1="106.7" x2="375.8" y2="669.8"/>
<polyline class="st1" points="447.7,136.9 409.8,360.1 527,583.9 "/>
<line class="st2" x1="112" y1="466.9" x2="194.1" y2="415.4"/>
<line class="st2" x1="409.8" y1="367.7" x2="504" y2="377.4"/>
</svg>
